<svg width="17" height="16" viewBox="0 0 17 16" fill="none" xmlns="http://www.w3.org/2000/svg">
<rect width="17" height="16" fill="#1E1E1E"/>
<g id="About">
<path d="M-251 -510C-251 -511.105 -250.105 -512 -249 -512H2812C2813.1 -512 2814 -511.105 2814 -510V1110C2814 1111.1 2813.1 1112 2812 1112H-249C-250.104 1112 -251 1111.1 -251 1110V-510Z" fill="#404040"/>
<g id="porfolio-about-desktop">
<rect width="1920" height="1080" transform="translate(-151 -412)" fill="#010C15"/>
<rect id="Main background" x="-81.5" y="-342.5" width="1781" height="940.32" rx="7.5" fill="#011627" stroke="#1E2D3D"/>
<path id="mail-icon" d="M0.811096 0.548828H15.4108C15.6259 0.548828 15.8322 0.634283 15.9844 0.786393C16.1365 0.938503 16.2219 1.14481 16.2219 1.35992V14.3375C16.2219 14.5526 16.1365 14.7589 15.9844 14.911C15.8322 15.0631 15.6259 15.1486 15.4108 15.1486H0.811096C0.59598 15.1486 0.389675 15.0631 0.237565 14.911C0.0854545 14.7589 0 14.5526 0 14.3375V1.35992C0 1.14481 0.0854545 0.938503 0.237565 0.786393C0.389675 0.634283 0.59598 0.548828 0.811096 0.548828ZM8.15963 7.59158L2.95888 3.17516L1.90851 4.41127L8.17017 9.728L14.3191 4.40721L13.2582 3.18002L8.16044 7.59158H8.15963Z" fill="#607B96"/>
</g>
<path d="M-249 -511H2812V-513H-249V-511ZM2813 -510V1110H2815V-510H2813ZM2812 1111H-249V1113H2812V1111ZM-250 1110V-510H-252V1110H-250ZM-249 1111C-249.552 1111 -250 1110.55 -250 1110H-252C-252 1111.66 -250.657 1113 -249 1113V1111ZM2813 1110C2813 1110.55 2812.55 1111 2812 1111V1113C2813.66 1113 2815 1111.66 2815 1110H2813ZM2812 -511C2812.55 -511 2813 -510.552 2813 -510H2815C2815 -511.657 2813.66 -513 2812 -513V-511ZM-249 -513C-250.657 -513 -252 -511.657 -252 -510H-250C-250 -510.552 -249.552 -511 -249 -511V-513Z" fill="white" fill-opacity="0.1"/>
</g>
</svg>
